<svg width="949" height="632" viewBox="0 0 949 632" fill="none" xmlns="http://www.w3.org/2000/svg">
<path d="M549.467 110.894C547.496 110.828 545.488 110.794 543.5 110.794V108.794C545.511 108.794 547.54 108.828 549.533 108.895L549.467 110.894Z" fill="#E6E6E6"/>
<path d="M367.739 277.536L365.742 277.433C365.847 275.416 365.986 273.391 366.156 271.414L368.148 271.584C367.98 273.54 367.843 275.542 367.739 277.536Z" fill="#E6E6E6"/>
<path d="M462.883 137.58H229.586V347.352H462.883V137.58Z" fill="#1BB3BD"/>
<path d="M454.068 142.904H246.242H234.462V154.064V339.318H246.242V154.064H454.068V142.904Z" fill="#3F3D56"/>
<path opacity="0.3" d="M454.068 142.904H246.242H234.462V154.064V339.318H246.242V154.064H454.068V142.904Z" fill="black"/>
<path opacity="0.1" d="M420.412 154.064H411.156H246.242V180.848H411.156V339.318H454.068V154.064H420.412Z" fill="black"/>
<path d="M221 131V351.222H467.53V131H221ZM454.067 339.318H234.462V142.904H454.067V339.318Z" fill="#3F3D56"/>
<path d="M394.011 359.341C394.011 359.341 405.159 378.44 411.429 382.752C417.7 387.065 401.327 392.301 401.327 392.301L382.167 365.81L394.011 359.341Z" fill="#DAB0B6"/>
<path d="M326.428 312.828C326.428 312.828 378.335 324.841 382.863 332.85C387.392 340.859 401.327 360.266 401.327 360.266L380.773 374.743L360.568 347.944L304.829 325.765L326.428 312.828Z" fill="#2F2E41"/>
<path d="M399.585 384.601C399.585 384.601 394.708 380.904 393.314 383.368C391.921 385.833 387.74 398.462 387.74 398.462C387.74 398.462 393.663 403.391 405.856 400.311C405.856 400.311 408.991 398.154 413.868 400.311C418.745 402.467 436.86 398.154 436.163 391.069C435.467 383.985 417.003 384.601 417.003 384.601C417.003 384.601 409.227 376.897 408.238 379.825C407.249 382.752 408.642 383.06 408.642 383.06C408.642 383.06 402.372 388.913 399.585 384.601Z" fill="#2F2E41"/>
<path d="M340.014 378.132L336.531 404.007H353.601C353.601 404.007 352.207 383.985 352.555 381.52C352.904 379.056 340.014 378.132 340.014 378.132Z" fill="#DAB0B6"/>
<path d="M349.769 321.145C349.769 321.145 359.174 333.466 353.601 334.39C348.027 335.315 343.498 321.145 343.498 321.145H349.769Z" fill="#A0616A"/>
<path d="M278.702 319.913C278.702 319.913 271.735 338.087 299.255 343.015C326.776 347.944 335.137 351.949 335.137 351.949L338.621 383.368L362.658 384.601C362.658 384.601 374.154 336.855 359.174 330.694C344.195 324.533 312.493 317.448 312.493 317.448L278.702 319.913Z" fill="#2F2E41"/>
<path d="M338.621 400.003C338.621 400.003 343.498 397.846 344.195 397.846C344.195 397.846 347.257 391.601 352.867 392.259L365.097 408.011C365.097 408.011 383.56 419.717 370.671 422.797C357.781 425.878 347.678 423.413 347.678 423.413L342.453 420.025C342.453 420.025 343.15 416.637 338.621 417.253C338.621 417.253 329.215 413.864 329.563 411.4C329.912 408.936 337.311 398.209 337.311 398.209L338.621 400.003Z" fill="#2F2E41"/>
<path d="M341.582 259.999C349.278 259.999 355.517 254.483 355.517 247.678C355.517 240.873 349.278 235.356 341.582 235.356C333.886 235.356 327.647 240.873 327.647 247.678C327.647 254.483 333.886 259.999 341.582 259.999Z" fill="#DAB0B6"/>
<path d="M330.26 243.827C330.26 243.827 317.719 251.836 315.28 252.144C312.842 252.452 326.776 267.546 326.776 267.546C326.776 267.546 333.395 257.997 337.576 256.765C341.756 255.533 330.26 243.827 330.26 243.827Z" fill="#DAB0B6"/>
<path d="M320.854 253.993C320.854 253.993 315.629 247.832 312.493 247.832C309.358 247.832 281.14 250.604 278.702 271.243C276.263 291.881 277.657 327.922 277.657 327.922C277.657 327.922 275.567 318.989 298.907 322.685C298.907 322.685 326.776 317.448 331.654 317.448C336.531 317.448 338.621 273.399 338.621 273.399L330.689 262.525C330.689 262.525 327.125 268.47 320.854 253.993Z" fill="#D0CDE1"/>
<path d="M333.395 270.935L338.621 273.399L344.891 307.283L353.601 324.841C353.601 324.841 344.195 321.978 343.498 325.412L329.563 307.591L333.395 270.935Z" fill="#D0CDE1"/>
<path d="M338.449 237.573L346.03 238.41C345.885 239.774 345.925 241.464 347.292 242.109C347.935 242.413 348.75 242.397 349.32 242.799C350.69 243.764 349.35 245.841 350.123 247.231L352.34 247.75C352.606 248.191 352.969 248.58 353.406 248.897C353.843 249.213 354.347 249.45 354.889 249.593C355.43 249.737 355.998 249.784 356.56 249.733C357.122 249.682 357.667 249.533 358.164 249.294C359.654 248.503 360.413 246.992 361.083 245.574C361.884 243.88 362.701 242.061 362.3 240.259C361.87 238.324 360.082 236.716 360.001 234.745C359.964 233.863 360.175 232.764 359.334 232.288C358.947 232.128 358.531 232.03 358.105 232C356.168 231.642 355.09 229.87 353.646 228.674C350.619 226.168 345.971 226.234 341.832 226.453C340.647 226.457 339.472 226.638 338.355 226.989C337.093 227.548 335.978 228.335 335.08 229.298C332.86 231.391 330.699 233.584 329.235 236.145C327.771 238.706 327.049 241.698 327.845 244.479C327.767 244.212 330.401 242.46 330.729 242.179C331.759 241.298 331.852 240.877 332.41 239.862C333.708 237.498 335.514 237.249 338.449 237.573Z" fill="#2F2E41"/>
<path opacity="0.1" d="M316.151 277.249L317.197 298.812L332.692 314.881L318.59 296.964L316.151 277.249Z" fill="black"/>
<path opacity="0.1" d="M288.282 283.102L300.475 308.053L316.151 319.451L299.429 309.286L288.282 283.102Z" fill="black"/>
<path d="M354.512 303.326L361.879 307.807C362.246 308.063 362.503 308.422 362.605 308.825C362.708 309.228 362.65 309.65 362.442 310.02L361.457 311.818L361.685 311.957L360.566 314L360.337 313.861L352.222 328.669C352.138 328.864 352.005 329.039 351.834 329.182C351.663 329.325 351.457 329.433 351.233 329.496C351.008 329.559 350.77 329.577 350.537 329.548C350.304 329.519 350.08 329.445 349.884 329.329L342.961 325.118C342.539 324.824 342.244 324.411 342.126 323.947C342.009 323.484 342.075 322.999 342.314 322.573L352.56 303.877C352.63 303.715 352.741 303.568 352.884 303.449C353.027 303.329 353.198 303.239 353.386 303.186C353.573 303.134 353.772 303.119 353.967 303.143C354.162 303.167 354.348 303.229 354.512 303.326Z" fill="#3F3D56"/>
<path d="M343.077 322.41L351.006 327.233L361.351 308.358L353.421 303.534L343.077 322.41Z" fill="white"/>
<path d="M339.634 318.255C339.634 318.255 353.452 326.722 348.637 329.37C343.821 332.019 333.79 320.265 333.79 320.265L339.634 318.255Z" fill="#DAB0B6"/>
<path d="M298.559 255.533C298.559 255.533 280.444 260.153 285.669 274.323C286.93 277.741 288.454 281.41 290.041 285.01C295.033 296.334 300.649 306.975 300.649 306.975L316.395 319.564L337.576 324.841L340.014 322.993C340.014 322.993 340.711 317.14 337.576 316.524C334.44 315.908 329.563 313.444 329.563 313.444L317.022 297.118C317.022 297.118 316.674 256.457 298.559 255.533Z" fill="#D0CDE1"/>
<path d="M476.536 440.201H704.278V235.423L476.536 235.423V440.201Z" fill="#CEA096"/>
<path d="M485.142 240.621H688.019H699.518V251.515V432.359H688.019V251.515H485.142V240.621Z" fill="#3F3D56"/>
<path opacity="0.3" d="M485.142 240.621H688.019H699.518V251.515V432.359H688.019V251.515H485.142V240.621Z" fill="black"/>
<path opacity="0.1" d="M517.997 251.515H527.031H688.019V277.661H527.031V432.359H485.142V251.515H517.997Z" fill="black"/>
<path d="M472 229V443.979H712.66V229H472ZM485.142 240.62H699.518V432.359H485.142V240.62Z" fill="#3F3D56"/>
<path d="M612.625 330.354C607.442 322.611 597.19 322.25 597.19 322.25C597.19 322.25 587.199 321.12 580.79 332.913C574.816 343.904 566.572 354.517 579.463 357.09L581.791 350.681L583.233 357.567C585.068 357.684 586.91 357.711 588.749 357.65C602.554 357.256 615.701 357.765 615.278 353.385C614.715 347.562 617.611 337.804 612.625 330.354Z" fill="#2F2E41"/>
<path d="M575.272 392.845L574.181 410.198L606.162 413.09L607.253 395.094L596.35 388.989L575.272 392.845Z" fill="#DAB0B6"/>
<path d="M661.22 430.925C660.261 422.727 622.186 419.006 613.036 418.229L609.615 416.464L608.524 406.181C608.524 406.181 574.727 403.61 572.183 403.289C569.639 402.967 567.458 407.145 567.458 408.109C567.458 408.806 566.983 413.781 565.073 416.73C560.95 419.66 548.379 428.878 548.379 432.371C548.379 436.548 558.373 489.089 558.373 489.089L559.463 500.014L569.639 501.621L568.912 467.558C568.912 467.558 572.546 447.956 567.458 442.493V440.244C567.458 440.244 582.381 436.806 587.64 433.063C589.164 432.773 593.447 432.06 595.812 432.68C596.137 432.849 596.511 433.023 596.926 433.199C596.98 433.241 597.03 433.287 597.077 433.335L597.118 433.279C603.921 436.095 621.375 439.647 628.512 438.637C634.018 437.894 639.646 438.799 644.503 441.208C640.505 445.707 643.413 458.561 643.413 458.561L643.776 486.196L648.864 491.659H655.769V476.556C655.769 476.556 662.31 440.244 661.22 430.925Z" fill="#2F2E41"/>
<path d="M593.988 351.552C600.611 351.552 605.981 346.804 605.981 340.947C605.981 335.091 600.611 330.343 593.988 330.343C587.364 330.343 581.995 335.091 581.995 340.947C581.995 346.804 587.364 351.552 593.988 351.552Z" fill="#DAB0B6"/>
<path d="M586.719 347.696C586.719 347.696 588.536 354.765 585.993 355.408C583.98 355.998 582.034 356.751 580.178 357.657L577.271 366.012V374.368L612.522 377.902L613.612 375.01V370.833L609.615 364.406L607.798 362.799C607.798 362.799 599.802 355.087 601.62 347.696H586.719Z" fill="#DAB0B6"/>
<path d="M618.155 373.243C618.155 373.243 619.245 384.49 618.155 389.632C617.065 394.773 617.428 402.485 617.428 402.485L609.433 401.2V383.847L611.25 374.528L618.155 373.243Z" fill="#DAB0B6"/>
<path d="M598.444 328.844C602.539 328.844 605.858 325.91 605.858 322.289C605.858 318.669 602.539 315.734 598.444 315.734C594.35 315.734 591.031 318.669 591.031 322.289C591.031 325.91 594.35 328.844 598.444 328.844Z" fill="#2F2E41"/>
<path d="M590.251 320.564C590.251 318.945 590.929 317.384 592.153 316.18C593.378 314.977 595.063 314.217 596.884 314.046C596.624 314.022 596.364 314.009 596.103 314.009C594.137 314.009 592.252 314.7 590.861 315.929C589.471 317.158 588.69 318.826 588.69 320.564C588.69 322.303 589.471 323.97 590.861 325.2C592.252 326.429 594.137 327.119 596.103 327.119C596.364 327.119 596.624 327.107 596.884 327.083C595.063 326.912 593.378 326.152 592.153 324.948C590.929 323.745 590.251 322.183 590.251 320.564V320.564Z" fill="#2F2E41"/>
<path d="M610.333 329.607L600.204 324.916L586.216 326.835L583.322 338.138L590.526 337.893L592.539 333.74V337.824L595.863 337.711L597.793 331.1L598.998 338.138L610.816 337.924L610.333 329.607Z" fill="#2F2E41"/>
<path d="M569.073 489.223C569.073 489.223 574.23 491.369 575.747 492.174C577.264 492.978 583.331 491.369 582.117 496.197C580.904 501.025 575.747 505.585 575.747 505.585C575.747 505.585 573.32 507.999 573.32 509.609C573.32 511.218 567.253 523.557 559.973 523.02C552.692 522.484 553.906 516.046 553.906 516.046L555.423 509.072C555.423 509.072 558.456 497.27 559.063 497.538C559.669 497.806 561.186 499.684 561.186 499.684C561.186 499.684 568.77 497.002 569.073 489.223Z" fill="#D0CDE1"/>
<path d="M644.705 481.189C644.705 481.189 639.548 483.335 638.031 484.14C636.514 484.945 630.447 483.335 631.661 488.163C632.874 492.992 638.031 497.552 638.031 497.552C638.031 497.552 640.458 499.966 640.458 501.575C640.458 503.184 646.525 515.523 653.805 514.987C661.086 514.45 659.872 508.013 659.872 508.013L658.356 501.039C658.356 501.039 655.322 489.236 654.715 489.505C654.109 489.773 652.592 491.65 652.592 491.65C652.592 491.65 645.008 488.968 644.705 481.189Z" fill="#D0CDE1"/>
<path d="M604.721 404.733V402.183H604.08V401.049C604.08 400.789 604.022 400.531 603.91 400.29C603.797 400.05 603.632 399.831 603.423 399.647C603.215 399.463 602.968 399.316 602.696 399.217C602.423 399.117 602.132 399.066 601.837 399.066H594.146C593.551 399.066 592.981 399.275 592.56 399.647C592.139 400.019 591.903 400.523 591.903 401.049V420.035C591.903 420.561 592.139 421.065 592.56 421.437C592.981 421.809 593.551 422.018 594.146 422.018H601.837C602.432 422.018 603.003 421.809 603.423 421.437C603.844 421.065 604.08 420.561 604.08 420.035V408.133H604.721V405.583H604.08V404.733H604.721Z" fill="#D0CDE1"/>
<path d="M598.312 405.867C599.02 405.867 599.594 405.359 599.594 404.733C599.594 404.107 599.02 403.6 598.312 403.6C597.604 403.6 597.03 404.107 597.03 404.733C597.03 405.359 597.604 405.867 598.312 405.867Z" fill="#3F3D56"/>
<path d="M566.186 367.78L559.645 391.56C559.645 391.56 557.101 396.701 562.915 399.915C568.73 403.128 581.813 407.306 581.813 407.306C581.813 407.306 593.443 421.445 594.896 415.661C596.35 409.876 586.174 402.485 586.174 402.485L568.367 392.524L575.272 375.814L566.186 367.78Z" fill="#DAB0B6"/>
<path d="M613.431 397.665C613.431 397.665 618.882 397.023 618.519 402.485C618.155 407.948 610.887 408.591 610.887 408.591C610.887 408.591 607.616 420.802 602.892 418.553C598.167 416.303 605.436 404.092 605.436 404.092L611.614 399.915L613.431 397.665Z" fill="#DAB0B6"/>
<path d="M578.361 365.691L584.175 355.087L572.546 358.621C572.546 358.621 566.004 361.514 565.641 368.262C565.278 375.01 574 378.545 574 378.545C574 378.545 575.453 388.185 574.727 389.471C574 390.756 574.727 395.898 574.727 395.898C574.727 395.898 588.718 392.524 595.623 396.701C602.528 400.879 608.161 398.469 608.161 398.469C608.161 398.469 607.798 390.435 610.705 389.149C613.612 387.864 616.156 381.758 613.612 377.902C613.612 377.902 619.427 378.545 619.064 373.725C618.7 368.905 615.793 364.727 611.068 362.799C606.344 360.871 605.822 360.563 605.822 360.563L612.522 371.475V374.368C612.522 374.368 600.661 367.673 588.925 367.115C585.097 366.96 581.337 368.054 578.361 370.19L578.361 370.19V365.691Z" fill="#2F2E41"/>
<path d="M280.28 178C280.12 178 279.976 177.944 279.848 177.832C279.736 177.704 279.68 177.56 279.68 177.4V161.8C279.68 161.624 279.736 161.48 279.848 161.368C279.976 161.256 280.12 161.2 280.28 161.2H282.872C283.256 161.2 283.536 161.376 283.712 161.728L287.936 169.288L292.16 161.728C292.336 161.376 292.616 161.2 293 161.2H295.568C295.744 161.2 295.888 161.256 296 161.368C296.128 161.48 296.192 161.624 296.192 161.8V177.4C296.192 177.576 296.128 177.72 296 177.832C295.888 177.944 295.744 178 295.568 178H292.712C292.536 178 292.384 177.944 292.256 177.832C292.144 177.72 292.088 177.576 292.088 177.4V168.4L289.4 173.416C289.192 173.784 288.912 173.968 288.56 173.968H287.312C287.104 173.968 286.936 173.92 286.808 173.824C286.68 173.728 286.568 173.592 286.472 173.416L283.76 168.4V177.4C283.76 177.56 283.704 177.704 283.592 177.832C283.48 177.944 283.336 178 283.16 178H280.28ZM305.051 178.24C303.131 178.24 301.619 177.72 300.515 176.68C299.411 175.64 298.835 174.128 298.787 172.144V171.304C298.851 169.416 299.435 167.944 300.539 166.888C301.659 165.816 303.155 165.28 305.027 165.28C306.387 165.28 307.531 165.56 308.459 166.12C309.403 166.664 310.107 167.416 310.571 168.376C311.051 169.336 311.291 170.44 311.291 171.688V172.264C311.291 172.424 311.235 172.568 311.123 172.696C311.011 172.808 310.867 172.864 310.691 172.864H303.011V173.032C303.043 173.784 303.227 174.392 303.563 174.856C303.899 175.32 304.387 175.552 305.027 175.552C305.427 175.552 305.755 175.472 306.011 175.312C306.267 175.136 306.499 174.928 306.707 174.688C306.851 174.512 306.963 174.408 307.043 174.376C307.139 174.328 307.283 174.304 307.475 174.304H310.451C310.595 174.304 310.715 174.352 310.811 174.448C310.923 174.528 310.979 174.64 310.979 174.784C310.979 175.2 310.739 175.68 310.259 176.224C309.795 176.768 309.115 177.24 308.219 177.64C307.323 178.04 306.267 178.24 305.051 178.24ZM307.067 170.488V170.44C307.067 169.656 306.883 169.04 306.515 168.592C306.163 168.128 305.667 167.896 305.027 167.896C304.403 167.896 303.907 168.128 303.539 168.592C303.187 169.04 303.011 169.656 303.011 170.44V170.488H307.067ZM316.358 178C316.198 178 316.054 177.944 315.926 177.832C315.814 177.704 315.758 177.56 315.758 177.4V172.24L310.19 161.968C310.142 161.824 310.118 161.736 310.118 161.704C310.118 161.576 310.166 161.464 310.262 161.368C310.374 161.256 310.502 161.2 310.646 161.2H313.646C313.966 161.2 314.246 161.368 314.486 161.704L317.918 167.896L321.374 161.704C321.566 161.368 321.846 161.2 322.214 161.2H325.214C325.358 161.2 325.478 161.256 325.574 161.368C325.67 161.464 325.718 161.576 325.718 161.704C325.718 161.784 325.702 161.872 325.67 161.968L320.102 172.24V177.4C320.102 177.576 320.038 177.72 319.91 177.832C319.798 177.944 319.654 178 319.478 178H316.358ZM330.57 178.24C329.162 178.24 328.026 177.768 327.162 176.824C326.298 175.864 325.866 174.528 325.866 172.816V166.12C325.866 165.944 325.922 165.8 326.034 165.688C326.146 165.576 326.29 165.52 326.466 165.52H329.466C329.642 165.52 329.786 165.576 329.898 165.688C330.026 165.8 330.09 165.944 330.09 166.12V172.672C330.09 174.24 330.786 175.024 332.178 175.024C332.85 175.024 333.378 174.816 333.762 174.4C334.146 173.984 334.338 173.408 334.338 172.672V166.12C334.338 165.944 334.394 165.8 334.506 165.688C334.634 165.576 334.778 165.52 334.938 165.52H337.938C338.114 165.52 338.258 165.576 338.37 165.688C338.482 165.8 338.538 165.944 338.538 166.12V177.4C338.538 177.56 338.482 177.704 338.37 177.832C338.258 177.944 338.114 178 337.938 178H335.154C334.994 178 334.85 177.944 334.722 177.832C334.61 177.704 334.554 177.56 334.554 177.4V176.488C333.722 177.656 332.394 178.24 330.57 178.24ZM353.623 178.24C351.335 178.24 349.543 177.688 348.247 176.584C346.967 175.464 346.287 173.848 346.207 171.736C346.191 171.304 346.183 170.6 346.183 169.624C346.183 168.632 346.191 167.912 346.207 167.464C346.287 165.384 346.983 163.784 348.295 162.664C349.607 161.528 351.383 160.96 353.623 160.96C355.031 160.96 356.295 161.2 357.415 161.68C358.535 162.144 359.415 162.816 360.055 163.696C360.711 164.56 361.047 165.576 361.063 166.744V166.792C361.063 166.92 361.007 167.032 360.895 167.128C360.799 167.208 360.687 167.248 360.559 167.248H357.319C357.111 167.248 356.951 167.208 356.839 167.128C356.727 167.032 356.631 166.864 356.551 166.624C356.327 165.808 355.975 165.24 355.495 164.92C355.015 164.584 354.383 164.416 353.599 164.416C351.711 164.416 350.735 165.472 350.671 167.584C350.655 168.016 350.647 168.68 350.647 169.576C350.647 170.472 350.655 171.152 350.671 171.616C350.735 173.728 351.711 174.784 353.599 174.784C354.383 174.784 355.023 174.616 355.519 174.28C356.015 173.928 356.359 173.36 356.551 172.576C356.615 172.336 356.703 172.176 356.815 172.096C356.927 172 357.095 171.952 357.319 171.952H360.559C360.703 171.952 360.823 172 360.919 172.096C361.031 172.192 361.079 172.312 361.063 172.456C361.047 173.624 360.711 174.648 360.055 175.528C359.415 176.392 358.535 177.064 357.415 177.544C356.295 178.008 355.031 178.24 353.623 178.24ZM363.922 178C363.762 178 363.618 177.944 363.49 177.832C363.378 177.704 363.322 177.56 363.322 177.4V161.56C363.322 161.384 363.378 161.24 363.49 161.128C363.618 161.016 363.762 160.96 363.922 160.96H366.994C367.17 160.96 367.314 161.016 367.426 161.128C367.538 161.24 367.594 161.384 367.594 161.56V166.912C368.554 165.824 369.818 165.28 371.386 165.28C372.314 165.28 373.138 165.488 373.858 165.904C374.594 166.32 375.17 166.936 375.586 167.752C376.002 168.568 376.21 169.552 376.21 170.704V177.4C376.21 177.56 376.154 177.704 376.042 177.832C375.93 177.944 375.786 178 375.61 178H372.514C372.354 178 372.21 177.944 372.082 177.832C371.97 177.704 371.914 177.56 371.914 177.4V170.848C371.914 170.096 371.73 169.52 371.362 169.12C371.01 168.704 370.49 168.496 369.802 168.496C369.114 168.496 368.57 168.704 368.17 169.12C367.786 169.52 367.594 170.096 367.594 170.848V177.4C367.594 177.576 367.538 177.72 367.426 177.832C367.314 177.944 367.17 178 366.994 178H363.922ZM382.676 178.24C381.828 178.24 381.052 178.08 380.348 177.76C379.66 177.424 379.116 176.976 378.716 176.416C378.332 175.84 378.14 175.208 378.14 174.52C378.14 173.416 378.588 172.528 379.484 171.856C380.396 171.184 381.644 170.72 383.228 170.464L386.228 170.008V169.672C386.228 169.064 386.1 168.616 385.844 168.328C385.588 168.04 385.156 167.896 384.548 167.896C384.18 167.896 383.876 167.96 383.636 168.088C383.396 168.216 383.148 168.392 382.892 168.616C382.668 168.808 382.5 168.936 382.388 169C382.34 169.128 382.252 169.192 382.124 169.192H379.508C379.348 169.192 379.212 169.144 379.1 169.048C379.004 168.936 378.964 168.808 378.98 168.664C378.996 168.232 379.204 167.752 379.604 167.224C380.02 166.696 380.644 166.24 381.476 165.856C382.324 165.472 383.364 165.28 384.596 165.28C386.564 165.28 388.02 165.72 388.964 166.6C389.908 167.464 390.38 168.632 390.38 170.104V177.4C390.38 177.56 390.324 177.704 390.212 177.832C390.1 177.944 389.956 178 389.78 178H386.996C386.836 178 386.692 177.944 386.564 177.832C386.452 177.704 386.396 177.56 386.396 177.4V176.56C386.044 177.056 385.548 177.464 384.908 177.784C384.284 178.088 383.54 178.24 382.676 178.24ZM383.804 175.504C384.54 175.504 385.132 175.264 385.58 174.784C386.044 174.304 386.276 173.6 386.276 172.672V172.336L384.236 172.696C382.796 172.952 382.076 173.456 382.076 174.208C382.076 174.608 382.244 174.928 382.58 175.168C382.916 175.392 383.324 175.504 383.804 175.504ZM399.378 178C396.066 178 394.41 176.424 394.41 173.272V168.664H392.538C392.362 168.664 392.21 168.608 392.082 168.496C391.97 168.384 391.914 168.24 391.914 168.064V166.12C391.914 165.944 391.97 165.8 392.082 165.688C392.21 165.576 392.362 165.52 392.538 165.52H394.41V161.56C394.41 161.384 394.466 161.24 394.578 161.128C394.706 161.016 394.85 160.96 395.01 160.96H397.794C397.97 160.96 398.114 161.016 398.226 161.128C398.338 161.24 398.394 161.384 398.394 161.56V165.52H401.394C401.57 165.52 401.714 165.576 401.826 165.688C401.954 165.8 402.018 165.944 402.018 166.12V168.064C402.018 168.24 401.954 168.384 401.826 168.496C401.714 168.608 401.57 168.664 401.394 168.664H398.394V172.936C398.394 174.12 398.85 174.712 399.762 174.712H401.61C401.786 174.712 401.93 174.768 402.042 174.88C402.154 174.992 402.21 175.136 402.21 175.312V177.4C402.21 177.56 402.154 177.704 402.042 177.832C401.93 177.944 401.786 178 401.61 178H399.378Z" fill="white"/>
<path d="M538.28 273C538.12 273 537.976 272.944 537.848 272.832C537.736 272.704 537.68 272.56 537.68 272.4V256.8C537.68 256.624 537.736 256.48 537.848 256.368C537.976 256.256 538.12 256.2 538.28 256.2H540.872C541.256 256.2 541.536 256.376 541.712 256.728L545.936 264.288L550.16 256.728C550.336 256.376 550.616 256.2 551 256.2H553.568C553.744 256.2 553.888 256.256 554 256.368C554.128 256.48 554.192 256.624 554.192 256.8V272.4C554.192 272.576 554.128 272.72 554 272.832C553.888 272.944 553.744 273 553.568 273H550.712C550.536 273 550.384 272.944 550.256 272.832C550.144 272.72 550.088 272.576 550.088 272.4V263.4L547.4 268.416C547.192 268.784 546.912 268.968 546.56 268.968H545.312C545.104 268.968 544.936 268.92 544.808 268.824C544.68 268.728 544.568 268.592 544.472 268.416L541.76 263.4V272.4C541.76 272.56 541.704 272.704 541.592 272.832C541.48 272.944 541.336 273 541.16 273H538.28ZM563.051 273.24C561.131 273.24 559.619 272.72 558.515 271.68C557.411 270.64 556.835 269.128 556.787 267.144V266.304C556.851 264.416 557.435 262.944 558.539 261.888C559.659 260.816 561.155 260.28 563.027 260.28C564.387 260.28 565.531 260.56 566.459 261.12C567.403 261.664 568.107 262.416 568.571 263.376C569.051 264.336 569.291 265.44 569.291 266.688V267.264C569.291 267.424 569.235 267.568 569.123 267.696C569.011 267.808 568.867 267.864 568.691 267.864H561.011V268.032C561.043 268.784 561.227 269.392 561.563 269.856C561.899 270.32 562.387 270.552 563.027 270.552C563.427 270.552 563.755 270.472 564.011 270.312C564.267 270.136 564.499 269.928 564.707 269.688C564.851 269.512 564.963 269.408 565.043 269.376C565.139 269.328 565.283 269.304 565.475 269.304H568.451C568.595 269.304 568.715 269.352 568.811 269.448C568.923 269.528 568.979 269.64 568.979 269.784C568.979 270.2 568.739 270.68 568.259 271.224C567.795 271.768 567.115 272.24 566.219 272.64C565.323 273.04 564.267 273.24 563.051 273.24ZM565.067 265.488V265.44C565.067 264.656 564.883 264.04 564.515 263.592C564.163 263.128 563.667 262.896 563.027 262.896C562.403 262.896 561.907 263.128 561.539 263.592C561.187 264.04 561.011 264.656 561.011 265.44V265.488H565.067ZM574.358 273C574.198 273 574.054 272.944 573.926 272.832C573.814 272.704 573.758 272.56 573.758 272.4V267.24L568.19 256.968C568.142 256.824 568.118 256.736 568.118 256.704C568.118 256.576 568.166 256.464 568.262 256.368C568.374 256.256 568.502 256.2 568.646 256.2H571.646C571.966 256.2 572.246 256.368 572.486 256.704L575.918 262.896L579.374 256.704C579.566 256.368 579.846 256.2 580.214 256.2H583.214C583.358 256.2 583.478 256.256 583.574 256.368C583.67 256.464 583.718 256.576 583.718 256.704C583.718 256.784 583.702 256.872 583.67 256.968L578.102 267.24V272.4C578.102 272.576 578.038 272.72 577.91 272.832C577.798 272.944 577.654 273 577.478 273H574.358ZM588.57 273.24C587.162 273.24 586.026 272.768 585.162 271.824C584.298 270.864 583.866 269.528 583.866 267.816V261.12C583.866 260.944 583.922 260.8 584.034 260.688C584.146 260.576 584.29 260.52 584.466 260.52H587.466C587.642 260.52 587.786 260.576 587.898 260.688C588.026 260.8 588.09 260.944 588.09 261.12V267.672C588.09 269.24 588.786 270.024 590.178 270.024C590.85 270.024 591.378 269.816 591.762 269.4C592.146 268.984 592.338 268.408 592.338 267.672V261.12C592.338 260.944 592.394 260.8 592.506 260.688C592.634 260.576 592.778 260.52 592.938 260.52H595.938C596.114 260.52 596.258 260.576 596.37 260.688C596.482 260.8 596.538 260.944 596.538 261.12V272.4C596.538 272.56 596.482 272.704 596.37 272.832C596.258 272.944 596.114 273 595.938 273H593.154C592.994 273 592.85 272.944 592.722 272.832C592.61 272.704 592.554 272.56 592.554 272.4V271.488C591.722 272.656 590.394 273.24 588.57 273.24ZM611.623 273.24C609.335 273.24 607.543 272.688 606.247 271.584C604.967 270.464 604.287 268.848 604.207 266.736C604.191 266.304 604.183 265.6 604.183 264.624C604.183 263.632 604.191 262.912 604.207 262.464C604.287 260.384 604.983 258.784 606.295 257.664C607.607 256.528 609.383 255.96 611.623 255.96C613.031 255.96 614.295 256.2 615.415 256.68C616.535 257.144 617.415 257.816 618.055 258.696C618.711 259.56 619.047 260.576 619.063 261.744V261.792C619.063 261.92 619.007 262.032 618.895 262.128C618.799 262.208 618.687 262.248 618.559 262.248H615.319C615.111 262.248 614.951 262.208 614.839 262.128C614.727 262.032 614.631 261.864 614.551 261.624C614.327 260.808 613.975 260.24 613.495 259.92C613.015 259.584 612.383 259.416 611.599 259.416C609.711 259.416 608.735 260.472 608.671 262.584C608.655 263.016 608.647 263.68 608.647 264.576C608.647 265.472 608.655 266.152 608.671 266.616C608.735 268.728 609.711 269.784 611.599 269.784C612.383 269.784 613.023 269.616 613.519 269.28C614.015 268.928 614.359 268.36 614.551 267.576C614.615 267.336 614.703 267.176 614.815 267.096C614.927 267 615.095 266.952 615.319 266.952H618.559C618.703 266.952 618.823 267 618.919 267.096C619.031 267.192 619.079 267.312 619.063 267.456C619.047 268.624 618.711 269.648 618.055 270.528C617.415 271.392 616.535 272.064 615.415 272.544C614.295 273.008 613.031 273.24 611.623 273.24ZM621.922 273C621.762 273 621.618 272.944 621.49 272.832C621.378 272.704 621.322 272.56 621.322 272.4V256.56C621.322 256.384 621.378 256.24 621.49 256.128C621.618 256.016 621.762 255.96 621.922 255.96H624.994C625.17 255.96 625.314 256.016 625.426 256.128C625.538 256.24 625.594 256.384 625.594 256.56V261.912C626.554 260.824 627.818 260.28 629.386 260.28C630.314 260.28 631.138 260.488 631.858 260.904C632.594 261.32 633.17 261.936 633.586 262.752C634.002 263.568 634.21 264.552 634.21 265.704V272.4C634.21 272.56 634.154 272.704 634.042 272.832C633.93 272.944 633.786 273 633.61 273H630.514C630.354 273 630.21 272.944 630.082 272.832C629.97 272.704 629.914 272.56 629.914 272.4V265.848C629.914 265.096 629.73 264.52 629.362 264.12C629.01 263.704 628.49 263.496 627.802 263.496C627.114 263.496 626.57 263.704 626.17 264.12C625.786 264.52 625.594 265.096 625.594 265.848V272.4C625.594 272.576 625.538 272.72 625.426 272.832C625.314 272.944 625.17 273 624.994 273H621.922ZM640.676 273.24C639.828 273.24 639.052 273.08 638.348 272.76C637.66 272.424 637.116 271.976 636.716 271.416C636.332 270.84 636.14 270.208 636.14 269.52C636.14 268.416 636.588 267.528 637.484 266.856C638.396 266.184 639.644 265.72 641.228 265.464L644.228 265.008V264.672C644.228 264.064 644.1 263.616 643.844 263.328C643.588 263.04 643.156 262.896 642.548 262.896C642.18 262.896 641.876 262.96 641.636 263.088C641.396 263.216 641.148 263.392 640.892 263.616C640.668 263.808 640.5 263.936 640.388 264C640.34 264.128 640.252 264.192 640.124 264.192H637.508C637.348 264.192 637.212 264.144 637.1 264.048C637.004 263.936 636.964 263.808 636.98 263.664C636.996 263.232 637.204 262.752 637.604 262.224C638.02 261.696 638.644 261.24 639.476 260.856C640.324 260.472 641.364 260.28 642.596 260.28C644.564 260.28 646.02 260.72 646.964 261.6C647.908 262.464 648.38 263.632 648.38 265.104V272.4C648.38 272.56 648.324 272.704 648.212 272.832C648.1 272.944 647.956 273 647.78 273H644.996C644.836 273 644.692 272.944 644.564 272.832C644.452 272.704 644.396 272.56 644.396 272.4V271.56C644.044 272.056 643.548 272.464 642.908 272.784C642.284 273.088 641.54 273.24 640.676 273.24ZM641.804 270.504C642.54 270.504 643.132 270.264 643.58 269.784C644.044 269.304 644.276 268.6 644.276 267.672V267.336L642.236 267.696C640.796 267.952 640.076 268.456 640.076 269.208C640.076 269.608 640.244 269.928 640.58 270.168C640.916 270.392 641.324 270.504 641.804 270.504ZM657.378 273C654.066 273 652.41 271.424 652.41 268.272V263.664H650.538C650.362 263.664 650.21 263.608 650.082 263.496C649.97 263.384 649.914 263.24 649.914 263.064V261.12C649.914 260.944 649.97 260.8 650.082 260.688C650.21 260.576 650.362 260.52 650.538 260.52H652.41V256.56C652.41 256.384 652.466 256.24 652.578 256.128C652.706 256.016 652.85 255.96 653.01 255.96H655.794C655.97 255.96 656.114 256.016 656.226 256.128C656.338 256.24 656.394 256.384 656.394 256.56V260.52H659.394C659.57 260.52 659.714 260.576 659.826 260.688C659.954 260.8 660.018 260.944 660.018 261.12V263.064C660.018 263.24 659.954 263.384 659.826 263.496C659.714 263.608 659.57 263.664 659.394 263.664H656.394V267.936C656.394 269.12 656.85 269.712 657.762 269.712H659.61C659.786 269.712 659.93 269.768 660.042 269.88C660.154 269.992 660.21 270.136 660.21 270.312V272.4C660.21 272.56 660.154 272.704 660.042 272.832C659.93 272.944 659.786 273 659.61 273H657.378Z" fill="white"/>
</svg>
